<svg fill="none" height="400" viewBox="0 0 400 400" width="400" xmlns="http://www.w3.org/2000/svg"><g stroke="#000" stroke-linecap="round" stroke-linejoin="round" stroke-opacity=".9" stroke-width="16"><path d="m179.222 296.039c-7.293 25.797-62.104 53.79-78.354 21.288-16.9079-33.814 27.839-59.036 54.404-63.866"/><path d="m154.089 255.235c-14.026 1.457-27.911-9.409-39.621-15.967-39.5167-22.129-65.2375-65.208-59.7261-112.06 5.8247-49.5113 66.2331-22.273 87.5201-4.14 18.431 15.701 32.355 37.033 42.577 58.84 8.313 17.732 15.273 32.758 20.697 51.743"/><path d="m211.746 221.528c4.474-17.599 8.854-35.885 15.671-52.926 7.51-18.775 16.195-38.056 28.68-54.108 11.184-14.379 53.579-60.6119 75.693-40.5075 6.819 6.1991 9.647 18.7224 11.531 27.2025 12.109 54.487-39.835 133.223-97.277 138.967"/><path d="m249.001 238.972c33.799-11.856 72.477 33.634 56.178 66.232-18.921 37.842-56.77 29.272-89.59-21.584"/><path d="m205.537 171.56c7.803 44.285-2.237 97.376-5.618 141.332"/></g></svg>