<svg clip-rule="evenodd" fill-rule="evenodd" height="2048" image-rendering="optimizeQuality" shape-rendering="geometricPrecision" text-rendering="geometricPrecision" viewBox="0 0 2048 2048" width="2048" xmlns="http://www.w3.org/2000/svg"><path d="m0 0h2048v2048h-2048z" fill="none"/><path d="m255.999 255.999h1536v1536h-1536z" fill="none"/><g fill="#212121" fill-rule="nonzero"><path d="m289.23 575.998h1469.54c17.9717 0 34.2862 7.32993 46.0949 19.1362 11.8063 11.8087 19.1362 28.1232 19.1362 46.0949v797.54c0 17.9717-7.32993 34.2862-19.1362 46.0949-11.8087 11.8063-28.1232 19.1362-46.0949 19.1362h-1469.54c-17.9717 0-34.2862-7.32993-46.0949-19.1362-11.8063-11.8087-19.1362-28.1232-19.1362-46.0949v-797.54c0-17.9717 7.32993-34.2862 19.1362-46.0949 11.8087-11.8063 28.1232-19.1362 46.0949-19.1362zm1469.54 64.0016h-1469.54c-.304725 0-.608268.148819-.844489.38504s-.38504.539764-.38504.844489v797.54c0 .304725.148819.608268.38504.844489s.539764.38504.844489.38504h1469.54c.304725 0 .608268-.148819.844489-.38504s.38504-.539764.38504-.844489v-797.54c0-.304725-.148819-.608268-.38504-.844489s-.539764-.38504-.844489-.38504z"/><path d="m928.001 767.998h767.999v64.002h-767.999z"/><path d="m928.001 991.996h767.999v64.004h-767.999z"/><path d="m928.001 1215.99h767.999v64h-767.999z"/><path d="m597.096 968.632c21.1831 0 40.7067-10.8473 55.1445-28.3831 15.8563-19.2591 25.6654-46.3276 25.6654-76.6359 0-32.4685-3.07677-61.1245-15.0709-79.5119-10.2791-15.7595-30.1146-25.5083-65.739-25.5083-35.6256 0-55.4622 9.74883-65.7414 25.5083-11.9929 18.3862-15.0673 47.0433-15.0673 79.5119 0 30.3095 9.80906 57.378 25.6654 76.6371 14.4366 17.5347 33.9603 28.3819 55.1433 28.3819zm104.394 12.1169c-26.3929 32.0563-63.2788 51.8847-104.394 51.8847-41.1166 0-78.0024-19.8284-104.393-51.8835-24.9709-30.3296-40.4174-71.7721-40.4174-117.137 0-43.2036 5.21693-83.0587 25.5697-114.262 22.0666-33.8327 58.6394-54.7595 119.241-54.7595 60.5977 0 97.1694 20.9268 119.238 54.7595 20.354 31.2024 25.5732 71.0575 25.5732 114.262 0 45.3638-15.4465 86.8064-40.4174 117.136z"/><path d="m778.046 1271.29c-.941339-59.4343-4.71024-96.8186-20.7791-118.854-14.0445-19.2567-41.341-30.9095-89.3658-40.6429-14.0126 9.94017-37.441 21.4583-70.8048 21.4583-33.3662 0-56.7981-11.5181-70.8095-21.4583-47.5075 9.6319-74.7426 21.1595-88.9194 40.0819-16.0583 21.4335-20.0729 57.6449-21.1465 115.13l-.0437008 2.2878c-.0496063 2.65748-.0956694 5.05276-.119291 10.9488 11.1201 11.9032 51.6095 41.1591 181.038 41.1591 129.454 0 169.932-29.2701 181.042-41.1674-.00944883-3.79843-.0248032-4.73268-.0401575-5.68583l-.0519685-3.25748zm30.7217-156.354c25.9949 35.6481 31.8839 82.9619 33.0296 155.355l.0519685 3.25748c.15 9.26812.298819 14.8217.298819 16.6193l-3.75118 14.8748c-.120473.230315-40.1705 80.3599-241.301 80.3599-201.137 0-241.185-80.1296-241.305-80.3599l-3.75118-14.8748c0-1.43622.18189-11.048.386221-21.874l.0437008-2.2878c1.32284-70.8674 7.64646-117.345 33.8977-152.382 26.7319-35.6811 69.6886-54.0886 143.325-67.3808l18.6106-3.36024 11.8902 14.7354c.0259843.0330709 9.05198 11.6315 36.9036 11.6315 27.8469 0 36.8729-11.5984 36.8988-11.6315l11.8913-14.7354 18.6095 3.36024c74.5087 13.4504 117.619 32.1473 144.272 68.693z"/></g></svg>